<svg id="visual" viewBox="0 0 900 600" width="900" height="600" xmlns="http://www.w3.org/2000/svg" xmlns:xlink="http://www.w3.org/1999/xlink" version="1.1"><rect x="0" y="0" width="900" height="600" fill="#1c948f"></rect><path d="M0 349L129 373L257 377L386 284L514 295L643 311L771 376L900 335L900 601L771 601L643 601L514 601L386 601L257 601L129 601L0 601Z" fill="#f59b51"></path><path d="M0 364L129 420L257 330L386 420L514 374L643 365L771 353L900 417L900 601L771 601L643 601L514 601L386 601L257 601L129 601L0 601Z" fill="#e78747"></path><path d="M0 446L129 438L257 469L386 471L514 404L643 400L771 419L900 441L900 601L771 601L643 601L514 601L386 601L257 601L129 601L0 601Z" fill="#d8743e"></path><path d="M0 429L129 481L257 442L386 477L514 423L643 506L771 502L900 501L900 601L771 601L643 601L514 601L386 601L257 601L129 601L0 601Z" fill="#c86036"></path><path d="M0 491L129 470L257 528L386 511L514 505L643 509L771 497L900 525L900 601L771 601L643 601L514 601L386 601L257 601L129 601L0 601Z" fill="#b84d2e"></path><path d="M0 527L129 566L257 576L386 536L514 517L643 572L771 572L900 521L900 601L771 601L643 601L514 601L386 601L257 601L129 601L0 601Z" fill="#a83a27"></path></svg>